<?xml version="1.0" encoding="UTF-8"?>
<svg width="32px" height="31px" viewBox="0 0 32 31" version="1.1" xmlns="http://www.w3.org/2000/svg" xmlns:xlink="http://www.w3.org/1999/xlink">
    <!-- Generator: Sketch 41.2 (35397) - http://www.bohemiancoding.com/sketch -->
    <title>facebook_icon_rc</title>
    <desc>Created with Sketch.</desc>
    <defs></defs>
    <g id="540x270" stroke="none" stroke-width="1" fill="none" fill-rule="evenodd">
        <g id="Business_card_03" transform="translate(-412.000000, -224.000000)" fill="#4BABE2">
            <path d="M412,228.997902 C412,226.237637 414.237434,224 416.998538,224 L438.112573,224 C440.873189,224 443.111111,226.229444 443.111111,228.997902 L443.111111,250.002098 C443.111111,252.762363 440.873677,255 438.112573,255 L416.998538,255 C414.237922,255 412,252.770556 412,250.002098 L412,228.997902 Z M431.752588,229.136935 L431.752588,232.249611 C431.752588,232.249611 429.446043,232.020348 428.86675,232.900363 C428.551416,233.381813 428.739199,234.787367 428.710854,235.799648 L431.772075,235.799648 C431.51343,236.98123 431.327419,237.781884 431.137864,238.804747 L428.693139,238.804747 L428.693139,248.476085 L424.453844,248.476085 C424.455615,245.493913 424.453844,242.016181 424.453844,238.841781 L422.650416,238.841781 L422.650416,235.799648 L424.434357,235.799648 C424.524705,233.574041 424.560136,231.369596 425.670892,230.247975 C426.921599,228.985269 428.112074,229.136935 431.752588,229.136935 Z" id="facebook_icon_rc"></path>
        </g>
    </g>
</svg>