<?xml version="1.0" encoding="UTF-8"?>
<svg width="32px" height="31px" viewBox="0 0 32 31" version="1.1" xmlns="http://www.w3.org/2000/svg" xmlns:xlink="http://www.w3.org/1999/xlink">
    <!-- Generator: Sketch 41.2 (35397) - http://www.bohemiancoding.com/sketch -->
    <title>facebook_sq</title>
    <desc>Created with Sketch.</desc>
    <defs></defs>
    <g id="540x270" stroke="none" stroke-width="1" fill="none" fill-rule="evenodd">
        <g id="Business_card_01-" transform="translate(-53.000000, -225.000000)" fill="#4BABE2">
            <path d="M53,225 L84.1111111,225 L84.1111111,256 L53,256 L53,225 Z M73.2668182,231.060314 L73.2668182,234.172989 C73.2668182,234.172989 70.9602732,233.943727 70.3809796,234.823741 C70.0656455,235.305192 70.2534288,236.710746 70.2250841,237.723026 L73.2863052,237.723026 C73.0276604,238.904609 72.8416487,239.705263 72.6520939,240.728125 L70.2073687,240.728125 L70.2073687,250.399464 L65.9680736,250.399464 C65.9698451,247.417291 65.9680736,243.93956 65.9680736,240.76516 L64.1646459,240.76516 L64.1646459,237.723026 L65.9485867,237.723026 C66.0389352,235.497419 66.074366,233.292975 67.1851216,232.171354 C68.4358288,230.908648 69.6263036,231.060314 73.2668182,231.060314 Z" id="facebook_sq"></path>
        </g>
    </g>
</svg>