<?xml version="1.0" encoding="UTF-8"?>
<svg width="18px" height="18px" viewBox="0 0 18 18" version="1.1" xmlns="http://www.w3.org/2000/svg" xmlns:xlink="http://www.w3.org/1999/xlink">
    <!-- Generator: Sketch 41.2 (35397) - http://www.bohemiancoding.com/sketch -->
    <title>globe_white_icon</title>
    <desc>Created with Sketch.</desc>
    <defs></defs>
    <g id="540x270" stroke="none" stroke-width="1" fill="none" fill-rule="evenodd">
        <g id="Business_card_02-Copy" transform="translate(-197.000000, -212.000000)" fill="#FFFFFF">
            <g id="globe_white_icon" transform="translate(197.000000, 212.000000)">
                <path d="M13.9157476,11.4496555 L16.5223419,11.4496555 C16.7786176,10.6493557 16.9078795,9.82882368 16.9078795,8.98805935 C16.9078795,8.12931075 16.7729975,7.30203462 16.5021096,6.50735496 L13.9157476,6.50735496 C14.0405135,7.3413752 14.1023344,8.16865133 14.1023344,8.98805935 C14.1023344,9.7962272 14.0405135,10.6156352 13.9157476,11.4496555 L13.9157476,11.4496555 Z M11.9846873,16.325639 C12.8726603,15.9592096 13.668464,15.4500301 14.3720983,14.7981006 C15.0757326,14.146171 15.6377409,13.394204 16.058123,12.5421995 L13.6988124,12.5421995 C13.331259,14.0888462 12.7602587,15.3499927 11.9846873,16.325639 L11.9846873,16.325639 Z M11.9846873,1.67071203 C12.7602587,2.65310244 13.331259,3.90076073 13.6988124,5.41481094 L16.058123,5.41481094 C15.6242527,4.57629464 15.0555003,3.83219573 14.351866,3.18363822 C13.6482317,2.5350807 12.8591721,2.0303973 11.9846873,1.67071203 L11.9846873,1.67071203 Z M9.53657939,16.8168342 C10.188509,16.6403636 10.7819897,16.1671526 11.3181455,15.3972013 C11.8554254,14.6272501 12.2713115,13.6763321 12.5669278,12.5421995 L9.53657939,12.5421995 L9.53657939,16.8168342 Z M9.53657939,11.4496555 L12.8130874,11.4496555 C12.9445974,10.5762946 13.0109143,9.75576261 13.0109143,8.98805935 C13.0109143,8.16190723 12.9378533,7.3346311 12.7939792,6.50735496 L9.53657939,6.50735496 L9.53657939,11.4496555 Z M9.53657939,5.41481094 L12.5669278,5.41481094 C12.2645674,4.2941665 11.8430612,3.35336471 11.3035333,2.5890335 C10.7640054,1.8258263 10.1750208,1.35598741 9.53657939,1.17951682 L9.53657939,5.41481094 Z M5.42267906,12.5421995 C5.71155129,13.6763321 6.12631338,14.626126 6.66808932,15.3927053 C7.20874125,16.1592845 7.80109794,16.6336195 8.44403537,16.8168342 L8.44403537,12.5421995 L5.42267906,12.5421995 Z M5.42267906,5.41481094 L8.44403537,5.41481094 L8.44403537,1.17951682 C7.80784204,1.35598741 7.21998142,1.8258263 6.68270154,2.5890335 C6.14429764,3.35336471 5.72391547,4.2941665 5.42267906,5.41481094 L5.42267906,5.41481094 Z M4.97981656,8.98805935 C4.97981656,9.75576261 5.04500952,10.5762946 5.17651945,11.4496555 L8.44403537,11.4496555 L8.44403537,6.50735496 L5.19675174,6.50735496 C5.05175362,7.3346311 4.97981656,8.16190723 4.97981656,8.98805935 L4.97981656,8.98805935 Z M1.93822795,12.5421995 C2.35861012,13.394204 2.91949434,14.146171 3.62200465,14.7981006 C4.32339093,15.4500301 5.11807059,15.9592096 6.00379558,16.325639 C5.22934822,15.3499927 4.65834785,14.0888462 4.29079445,12.5421995 L1.93822795,12.5421995 Z M1.93822795,5.41481094 L4.29079445,5.41481094 C4.65834785,3.90076073 5.22934822,2.65310244 6.00379558,1.67071203 C5.13043477,2.0303973 4.34362323,2.5350807 3.64111293,3.18363822 C2.93972664,3.83219573 2.37209831,4.57629464 1.93822795,5.41481094 L1.93822795,5.41481094 Z M1.09184354,8.98805935 C1.09184354,9.82882368 1.21998142,10.6493557 1.47625717,11.4496555 L4.07385927,11.4496555 C3.95021746,10.6167592 3.88727254,9.7962272 3.88727254,8.98805935 C3.88727254,8.16865133 3.95021746,7.3413752 4.07385927,6.50735496 L1.49648947,6.50735496 C1.22672552,7.30203462 1.09184354,8.12931075 1.09184354,8.98805935 L1.09184354,8.98805935 Z M0.713049981,12.4882467 C0.237591008,11.3754704 0.000423529412,10.2087413 0.000423529412,8.98805935 C0.000423529412,7.76737744 0.237591008,6.60289637 0.713049981,5.49349209 C1.18963297,4.38408782 1.82919835,3.42979783 2.63287014,2.62837407 C3.43654193,1.82807433 4.39195594,1.18963297 5.50136021,0.714173998 C6.60964046,0.237591008 7.77187351,0.000423529412 8.98693533,0.000423529412 C10.2019972,0.000423529412 11.3676022,0.237591008 12.4815026,0.714173998 C13.5965269,1.18963297 14.556437,1.82807433 15.3612328,2.62837407 C16.1671526,3.42979783 16.807842,4.38408782 17.285549,5.49349209 C17.762132,6.60289637 18.0004235,7.76737744 18.0004235,8.98805935 C18.0004235,10.2087413 17.762132,11.3754704 17.285549,12.4882467 C16.807842,13.601023 16.1671526,14.5586851 15.3612328,15.3623568 C14.556437,16.1671526 13.5965269,16.806718 12.4815026,17.282177 C11.3676022,17.75876 10.2019972,17.9959275 8.98693533,17.9959275 C7.77187351,17.9959275 6.60964046,17.75876 5.50136021,17.282177 C4.39195594,16.806718 3.43654193,16.1671526 2.63287014,15.3634809 C1.82919835,14.5598091 1.18963297,13.601023 0.713049981,12.4882467 L0.713049981,12.4882467 Z" id="Fill-1"></path>
            </g>
        </g>
    </g>
</svg>