<?xml version="1.0" encoding="UTF-8"?>
<svg width="32px" height="31px" viewBox="0 0 32 31" version="1.1" xmlns="http://www.w3.org/2000/svg" xmlns:xlink="http://www.w3.org/1999/xlink">
    <!-- Generator: Sketch 41.2 (35397) - http://www.bohemiancoding.com/sketch -->
    <title>linkedin_icon_rc</title>
    <desc>Created with Sketch.</desc>
    <defs></defs>
    <g id="540x270" stroke="none" stroke-width="1" fill="none" fill-rule="evenodd">
        <g id="Business_card_03" transform="translate(-490.000000, -224.000000)" fill="#4BABE2">
            <path d="M490,228.997902 C490,226.237637 492.237434,224 494.998538,224 L516.112573,224 C518.873189,224 521.111111,226.229444 521.111111,228.997902 L521.111111,250.002098 C521.111111,252.762363 518.873677,255 516.112573,255 L494.998538,255 C492.237922,255 490,252.770556 490,250.002098 L490,228.997902 Z M497.221442,247.662009 L501.179063,247.662009 L501.179063,235.895566 L497.221442,235.895566 L497.221442,247.662009 Z M499.207339,234.15141 C497.988519,234.15141 497,233.22378 497,232.077468 C497,230.929394 497.988519,230 499.207339,230 C500.426158,230 501.412906,230.929394 501.412906,232.077468 C501.412906,233.22378 500.426158,234.15141 499.207339,234.15141 Z M510.757779,247.662009 L510.757779,241.237376 C510.757779,239.92 510.392842,238.599097 508.911835,238.599097 C507.430827,238.599097 506.810788,239.92 506.810788,241.26912 L506.810788,247.662009 L502.858483,247.662009 L502.858483,235.89733 L506.810788,235.89733 L506.810788,237.481003 C507.850682,236.096612 508.754168,235.52522 510.392842,235.52522 C512.033288,235.52522 514.697684,236.327637 514.697684,240.972843 L514.697684,247.662009 L510.757779,247.662009 Z" id="linkedin_icon_rc"></path>
        </g>
    </g>
</svg>