<?xml version="1.0" encoding="UTF-8"?>
<svg width="32px" height="31px" viewBox="0 0 32 31" version="1.1" xmlns="http://www.w3.org/2000/svg" xmlns:xlink="http://www.w3.org/1999/xlink">
    <!-- Generator: Sketch 41.2 (35397) - http://www.bohemiancoding.com/sketch -->
    <title>linkedin_sq</title>
    <desc>Created with Sketch.</desc>
    <defs></defs>
    <g id="540x270" stroke="none" stroke-width="1" fill="none" fill-rule="evenodd">
        <g id="Business_card_01-" transform="translate(-131.000000, -225.000000)" fill="#4BABE2">
            <path d="M131,225 L162.111111,225 L162.111111,256 L131,256 L131,225 Z M138.221442,248.662009 L142.179063,248.662009 L142.179063,236.895566 L138.221442,236.895566 L138.221442,248.662009 Z M140.207339,235.15141 C138.988519,235.15141 138,234.22378 138,233.077468 C138,231.929394 138.988519,231 140.207339,231 C141.426158,231 142.412906,231.929394 142.412906,233.077468 C142.412906,234.22378 141.426158,235.15141 140.207339,235.15141 Z M151.757779,248.662009 L151.757779,242.237376 C151.757779,240.92 151.392842,239.599097 149.911835,239.599097 C148.430827,239.599097 147.810788,240.92 147.810788,242.26912 L147.810788,248.662009 L143.858483,248.662009 L143.858483,236.89733 L147.810788,236.89733 L147.810788,238.481003 C148.850682,237.096612 149.754168,236.52522 151.392842,236.52522 C153.033288,236.52522 155.697684,237.327637 155.697684,241.972843 L155.697684,248.662009 L151.757779,248.662009 Z" id="linkedin_sq"></path>
        </g>
    </g>
</svg>