<?xml version="1.0" encoding="UTF-8"?>
<svg width="31px" height="30px" viewBox="0 0 31 30" version="1.1" xmlns="http://www.w3.org/2000/svg" xmlns:xlink="http://www.w3.org/1999/xlink">
    <!-- Generator: Sketch 41.2 (35397) - http://www.bohemiancoding.com/sketch -->
    <title>linkedin_circle</title>
    <desc>Created with Sketch.</desc>
    <defs></defs>
    <g id="540x270" stroke="none" stroke-width="1" fill="none" fill-rule="evenodd">
        <g id="Business_card_02-Copy" transform="translate(-493.000000, -108.000000)" fill="#4BABE2">
            <g id="linkedin_circle" transform="translate(493.000000, 108.000000)">
                <path d="M30.7021574,15.043844 C30.7021574,6.79414287 23.9867458,0.106262437 15.7030842,0.106262437 C7.41777184,0.106262437 0.702360263,6.79414287 0.702360263,15.043844 C0.702360263,23.293545 7.41777184,29.9814255 15.7030842,29.9814255 C23.9867458,29.9814255 30.7021574,23.293545 30.7021574,15.043844 Z M8.39669,21.0305491 L11.7477926,21.0305491 L11.7477926,11.0644893 L8.39669,11.0644893 L8.39669,21.0305491 Z M10.0788445,9.5865138 C9.04710105,9.5865138 8.21015079,8.8006714 8.21015079,7.82905456 C8.21015079,6.85743771 9.04710105,6.0699513 10.0788445,6.0699513 C11.1105879,6.0699513 11.9475382,6.85743771 11.9475382,7.82905456 C11.9475382,8.8006714 11.1105879,9.5865138 10.0788445,9.5865138 Z M19.8581213,21.0305491 L19.8581213,15.5871931 C19.8581213,14.4709024 19.5494237,13.3529676 18.2964745,13.3529676 C17.0418745,13.3529676 16.5169234,14.4709024 16.5169234,15.6151415 L16.5169234,21.0305491 L13.1707732,21.0305491 L13.1707732,11.0644893 L16.5169234,11.0644893 L16.5169234,12.4060111 C17.398445,11.2338236 18.1627605,10.7504812 19.5494237,10.7504812 C20.9377376,10.7504812 23.1943668,11.4278181 23.1943668,15.3652502 L23.1943668,21.0305491 L19.8581213,21.0305491 Z" id="Combined-Shape"></path>
            </g>
        </g>
    </g>
</svg>