<?xml version="1.0" encoding="UTF-8"?>
<svg width="14px" height="18px" viewBox="0 0 14 18" version="1.1" xmlns="http://www.w3.org/2000/svg" xmlns:xlink="http://www.w3.org/1999/xlink">
    <!-- Generator: Sketch 41.2 (35397) - http://www.bohemiancoding.com/sketch -->
    <title>lacation_white_icon</title>
    <desc>Created with Sketch.</desc>
    <defs></defs>
    <g id="540x270" stroke="none" stroke-width="1" fill="none" fill-rule="evenodd">
        <g id="Business_card_02-Copy" transform="translate(-199.000000, -239.000000)" fill="#FFFFFF">
            <g id="lacation_white_icon" transform="translate(199.000000, 239.000000)">
                <path d="M12.3726706,6.73623529 C12.0500824,9.81776471 10.0866706,13.2134118 6.69102353,16.5702353 C5.35655294,15.2647059 1.53878824,10.8529412 1.14314118,6.72670588 C1.14031765,6.70305882 0.879847059,4.34435294 2.32196471,2.72152941 C3.26643529,1.65847059 4.74984706,1.11952941 6.74608235,1.11952941 C8.72749412,1.11952941 10.2147882,1.65988235 11.1663176,2.72435294 C12.6193765,4.34858824 12.3751412,6.70729412 12.3726706,6.73623529 M12.0098471,1.98670588 C10.8352588,0.668823529 9.06525882,0 6.72949412,0 C4.41067059,0 2.64314118,0.668823529 1.47702353,1.98670588 C-0.298976471,3.99423529 0.0169058824,6.74576471 0.0292588235,6.84811765 C0.473258824,11.4596471 4.68772941,16.2614118 6.12843529,17.5796471 C6.23184706,17.6745882 6.36702353,17.7271765 6.50643529,17.7271765 L6.88267059,17.7271765 C7.02878824,17.7271765 7.1682,17.6692941 7.27267059,17.5672941 C10.9813765,13.962 13.1293765,10.2575294 13.4851412,6.85905882 C13.4989059,6.74329412 13.7953765,3.99282353 12.0098471,1.98670588" id="Fill-1"></path>
                <path d="M6.78067059,8.49670588 C5.84184706,8.49670588 5.07808235,7.73294118 5.07808235,6.79411765 C5.07808235,5.85529412 5.84184706,5.09152941 6.78067059,5.09152941 C7.72090588,5.09152941 8.48467059,5.85529412 8.48467059,6.79411765 C8.48467059,7.73294118 7.72090588,8.49670588 6.78067059,8.49670588 M6.78067059,3.972 C5.2242,3.972 3.95855294,5.23764706 3.95855294,6.79411765 C3.95855294,8.35058824 5.2242,9.61764706 6.78067059,9.61764706 C8.33855294,9.61764706 9.6042,8.35058824 9.6042,6.79411765 C9.6042,5.23764706 8.33714118,3.972 6.78067059,3.972" id="Fill-4"></path>
            </g>
        </g>
    </g>
</svg>