<?xml version="1.0" encoding="UTF-8"?>
<svg width="32px" height="31px" viewBox="0 0 32 31" version="1.1" xmlns="http://www.w3.org/2000/svg" xmlns:xlink="http://www.w3.org/1999/xlink">
    <!-- Generator: Sketch 41.2 (35397) - http://www.bohemiancoding.com/sketch -->
    <title>tweeter_sq</title>
    <desc>Created with Sketch.</desc>
    <defs></defs>
    <g id="540x270" stroke="none" stroke-width="1" fill="none" fill-rule="evenodd">
        <g id="Business_card_01-" transform="translate(-14.000000, -225.000000)" fill="#4BABE2">
            <path d="M14,225 L45.1111111,225 L45.1111111,256 L14,256 L14,225 Z M33.0917919,233.000859 C34.504772,232.975794 35.2571764,233.502168 35.9740343,234.171561 C36.5842521,234.117007 37.3766466,233.76904 37.8431966,233.527233 C37.99427,233.441716 38.1453433,233.357673 38.2964166,233.27363 C38.0298166,234.009373 37.6684255,234.585878 37.1130088,235.023785 C36.9900766,235.121098 36.8671443,235.252323 36.7131088,235.314249 L36.7131088,235.323096 C37.5040221,235.314249 38.1571922,234.950063 38.7777778,234.751015 L38.7777778,234.761336 C38.4519333,235.290658 38.0105622,235.827353 37.5410499,236.21218 C37.3514677,236.366996 37.1604043,236.520338 36.9708221,236.675153 C36.9811899,237.5318 36.9589732,238.348638 36.8019754,239.069637 C35.891092,243.25556 33.4783619,246.098272 29.657095,247.314682 C28.285586,247.752589 26.0683625,247.93247 24.4969036,247.532898 C23.7178391,247.335324 23.0128301,247.11121 22.3522545,246.816323 C21.984939,246.65266 21.6457645,246.474253 21.31992,246.272256 C21.21328,246.205906 21.10664,246.139557 21,246.073207 C21.3539856,246.083528 21.7686967,246.18379 22.1656345,246.11744 C22.5240634,246.058463 22.8750868,246.074681 23.2068557,245.999485 C24.0318346,245.815181 24.7649847,245.570424 25.3959381,245.192969 C25.701047,245.010139 26.1661159,244.794871 26.3823581,244.530947 C25.9735714,244.538319 25.6018125,244.441007 25.2981847,244.330424 C24.1177391,243.904312 23.4305035,243.121387 22.984689,241.944787 C23.3416368,241.984597 24.3710091,242.080435 24.6124302,241.872539 C24.1621724,241.847474 23.7296879,241.580601 23.4201357,241.383027 C22.4707434,240.775559 21.6976034,239.756724 21.7035278,238.189399 C21.8279412,238.249851 21.9523545,238.310303 22.0767678,238.370754 C22.3152267,238.473965 22.5566479,238.528519 22.8425023,238.588971 C22.9624723,238.614036 23.2024124,238.686284 23.3401557,238.634678 L23.3223824,238.634678 C23.1387246,238.414988 22.8395401,238.270493 22.6544012,238.036058 C22.0456645,237.261979 21.4754367,236.070635 21.8368278,234.652227 C21.9271756,234.292465 22.0738056,233.973987 22.2278412,233.680574 C22.2337656,233.684998 22.2396901,233.686472 22.2456145,233.690895 C22.3167079,233.842762 22.4751868,233.953345 22.5744212,234.080146 C22.8854546,234.473821 23.2690624,234.82916 23.6600757,235.14174 C24.9915947,236.206283 26.1912948,236.860932 28.1182204,237.346022 C28.6069871,237.4684 29.1712905,237.562764 29.7548483,237.564238 C29.5919261,237.0762 29.643765,236.285902 29.7726217,235.812608 C30.096985,234.624213 30.8019939,233.767566 31.8372907,233.309016 C32.0846362,233.199908 32.3586418,233.120289 32.6474585,233.055413 C32.7955696,233.03772 32.9436807,233.018553 33.0917919,233.000859 Z" id="tweeter_sq"></path>
        </g>
    </g>
</svg>