<?xml version="1.0" encoding="UTF-8"?>
<svg width="30px" height="31px" viewBox="0 0 30 31" version="1.1" xmlns="http://www.w3.org/2000/svg" xmlns:xlink="http://www.w3.org/1999/xlink">
    <!-- Generator: Sketch 41.2 (35397) - http://www.bohemiancoding.com/sketch -->
    <title>tweeter_circle</title>
    <desc>Created with Sketch.</desc>
    <defs></defs>
    <g id="540x270" stroke="none" stroke-width="1" fill="none" fill-rule="evenodd">
        <g id="Business_card_02-Copy" transform="translate(-388.000000, -108.000000)" fill="#4BABE2">
            <g id="tweeter_circle" transform="translate(387.000000, 108.000000)">
                <path d="M30.9991368,15.3128657 C30.9991368,7.06316461 24.2837252,0.375284176 16.0000636,0.375284176 C7.71475126,0.375284176 0.999339684,7.06316461 0.999339684,15.3128657 C0.999339684,23.5625668 7.71475126,30.2504472 16.0000636,30.2504472 C24.2837252,30.2504472 30.9991368,23.5625668 30.9991368,15.3128657 Z M19.2435348,7.83930727 C20.6747693,7.81300293 21.4357832,8.34730999 22.1637814,9.02464695 C22.7811766,8.97039423 23.5818095,8.61857358 24.0555861,8.37197032 C24.2091095,8.28648119 24.3609822,8.20099206 24.5145056,8.11550293 C24.2454269,8.8618888 23.8789516,9.44551651 23.3160324,9.88940238 C23.1922232,9.98804369 23.0667632,10.1195654 22.911589,10.1836823 L22.911589,10.1919024 C23.7122219,10.1836823 24.3741885,9.81377738 25.0014885,9.61320673 L25.0014885,9.62307086 C24.6713306,10.1590219 24.2256174,10.7031931 23.7485393,11.0928263 C23.5570477,11.2490084 23.3639053,11.4051904 23.1724137,11.5613725 C23.1823185,12.429416 23.1592074,13.2580029 23.0007316,13.9879486 C22.0779403,18.2295247 19.6347719,21.1082067 15.7653214,22.341223 C14.3753566,22.7851089 12.1302829,22.9675953 10.5389219,22.563166 C9.74984453,22.3625953 9.03670347,22.1357203 8.36813374,21.8365084 C7.99505532,21.6704622 7.65169111,21.4896198 7.32153321,21.2857611 C7.21423189,21.2183562 7.10527979,21.1493073 6.99797847,21.0835464 C7.35619979,21.0934105 7.77715111,21.1953399 8.17829295,21.127935 C8.54146663,21.0687502 8.89803716,21.0851904 9.23314742,21.0095654 C10.0684469,20.8221469 10.8096514,20.5738997 11.4485069,20.1908426 C11.7588553,20.0067122 12.2293303,19.7880573 12.4488853,19.5200817 C12.0345372,19.5283018 11.6581572,19.4296605 11.3494595,19.3178671 C10.1559387,18.8871334 9.45930558,18.0930709 9.00698926,16.9011551 C9.36851216,16.9422556 10.4118111,17.0376089 10.6561279,16.8271741 C10.2005101,16.8025138 9.76140005,16.5312502 9.44940084,16.3306796 C8.48699058,15.7158154 7.70451637,14.6833698 7.70946874,13.0968888 C7.83657953,13.1577176 7.96203953,13.2185464 8.08749953,13.2810192 C8.33016558,13.3845926 8.57448242,13.4404893 8.86337058,13.5013181 C8.985529,13.5259785 9.22819505,13.5999594 9.36851216,13.5473508 L9.35530584,13.5473508 C9.16381426,13.3254078 8.860069,13.1774459 8.67352979,12.9407067 C8.05778532,12.1565084 7.480009,10.9497964 7.84483347,9.51127738 C7.93727768,9.14794858 8.08419795,8.82572032 8.24102295,8.52815238 C8.24762611,8.53144043 8.25257847,8.53472847 8.25918163,8.53801651 C8.33181637,8.69091054 8.49194295,8.80434804 8.59264111,8.93258173 C8.90794189,9.33207901 9.29587742,9.69211977 9.69206689,10.0077719 C11.0407619,11.0878942 12.2557429,11.750435 14.2069761,12.2419975 C14.7022129,12.3652991 15.2733861,12.4606524 15.8643687,12.4622964 C15.6992898,11.9674459 15.7521151,11.1668073 15.8825274,10.6883969 C16.2110345,9.48497304 16.9258264,8.61692956 17.9724269,8.1516714 C18.2233469,8.03987793 18.5006795,7.95932086 18.7928693,7.89520401 C18.9430911,7.87547575 19.0933129,7.85739151 19.2435348,7.83930727 Z" id="Combined-Shape"></path>
            </g>
        </g>
    </g>
</svg>