<?xml version="1.0" encoding="UTF-8"?>
<svg width="18px" height="14px" viewBox="0 0 18 14" version="1.1" xmlns="http://www.w3.org/2000/svg" xmlns:xlink="http://www.w3.org/1999/xlink">
    <!-- Generator: Sketch 41.2 (35397) - http://www.bohemiancoding.com/sketch -->
    <title>e-mail_white_icon</title>
    <desc>Created with Sketch.</desc>
    <defs></defs>
    <g id="540x270" stroke="none" stroke-width="1" fill="none" fill-rule="evenodd">
        <g id="Business_card_02-Copy" transform="translate(-197.000000, -189.000000)" fill="#FFFFFF">
            <path d="M214.023752,191.902874 L214.023752,194.363238 L214.023752,198.044932 L214.023752,201.160212 C214.023752,201.218759 213.993797,201.248714 213.93525,201.248714 L198.074281,201.248714 C198.051135,201.248714 198.029349,201.237821 198.008926,201.217398 C197.988502,201.196974 197.97761,201.177912 197.97761,201.160212 L197.97761,194.363238 L197.978971,194.363238 L197.978971,191.902874 L197.97761,191.902874 L197.97761,190.120575 L204.807262,196.863086 C205.142209,197.196672 205.535703,197.361422 206.008169,197.36823 L206.039486,197.36823 C206.491528,197.36823 206.87413,197.207564 207.213162,196.87534 L214.023752,190.146445 L214.023752,190.831316 L214.023752,191.902874 Z M206.488805,196.133283 C206.317247,196.304841 206.134796,196.340242 206.013616,196.340242 C205.891074,196.340242 205.709985,196.304841 205.539788,196.133283 L199.29289,189.965356 L212.73298,189.965356 L206.488805,196.133283 Z M214.772617,189.405749 L214.795764,189.382602 L214.753555,189.382602 C214.733132,189.358094 214.715431,189.330862 214.692284,189.307716 C214.486687,189.10348 214.234796,189 213.93525,189 L198.066112,189 C197.766566,189 197.513313,189.10348 197.309077,189.307716 C197.28593,189.330862 197.26823,189.358094 197.246445,189.382602 L197.228744,189.382602 L197.238275,189.392133 C197.083056,189.581392 197,189.799244 197,190.051135 L197,201.160212 C197,201.450227 197.10348,201.698033 197.309077,201.904992 C197.513313,202.11059 197.766566,202.212708 198.066112,202.212708 L213.93525,202.212708 C214.234796,202.212708 214.486687,202.11059 214.692284,201.904992 C214.897882,201.698033 215,201.450227 215,201.160212 L215,190.051135 C215,189.806051 214.921029,189.590923 214.772617,189.405749 L214.772617,189.405749 Z" id="e-mail_white_icon"></path>
        </g>
    </g>
</svg>