<?xml version="1.0" encoding="UTF-8"?>
<svg width="31px" height="31px" viewBox="0 0 31 31" version="1.1" xmlns="http://www.w3.org/2000/svg" xmlns:xlink="http://www.w3.org/1999/xlink">
    <!-- Generator: Sketch 41.2 (35397) - http://www.bohemiancoding.com/sketch -->
    <title>facebook_circle</title>
    <desc>Created with Sketch.</desc>
    <defs></defs>
    <g id="540x270" stroke="none" stroke-width="1" fill="none" fill-rule="evenodd">
        <g id="Business_card_02-Copy" transform="translate(-422.000000, -108.000000)" fill="#4BABE2">
            <g id="facebook_circle" transform="translate(422.333333, 108.000000)">
                <path d="M30.2622947,15.877094 C30.2622947,7.62739287 23.5468831,0.939512437 15.2632215,0.939512437 C6.97790916,0.939512437 0.262497579,7.62739287 0.262497579,15.877094 C0.262497579,24.126795 6.97790916,30.8146755 15.2632215,30.8146755 C23.5468831,30.8146755 30.2622947,24.126795 30.2622947,15.877094 Z M19.1084054,7.68904369 L19.1084054,10.3260546 C19.1084054,10.3260546 17.1555215,10.13206 16.665237,10.8768018 C16.3978091,11.2845192 16.5562849,12.476435 16.5331739,13.3313263 L19.1249133,13.3313263 C18.9053583,14.3325355 18.7485333,15.0115165 18.586756,15.877916 L16.5183168,15.877916 L16.5183168,24.0700763 L12.9278497,24.0700763 C12.9295004,21.5448589 12.9278497,18.5971279 12.9278497,15.9091524 L11.4008694,15.9091524 L11.4008694,13.3313263 L12.9113418,13.3313263 C12.9889289,11.4472774 13.0186431,9.57966869 13.9595931,8.62942412 C15.0177491,7.56080999 16.0263815,7.68904369 19.1084054,7.68904369 Z" id="Combined-Shape"></path>
            </g>
        </g>
    </g>
</svg>