<?xml version="1.0" encoding="UTF-8"?>
<svg width="32px" height="31px" viewBox="0 0 32 31" version="1.1" xmlns="http://www.w3.org/2000/svg" xmlns:xlink="http://www.w3.org/1999/xlink">
    <!-- Generator: Sketch 41.2 (35397) - http://www.bohemiancoding.com/sketch -->
    <title>gmail_icon_rc</title>
    <desc>Created with Sketch.</desc>
    <defs></defs>
    <g id="540x270" stroke="none" stroke-width="1" fill="none" fill-rule="evenodd">
        <g id="Business_card_03" transform="translate(-452.000000, -224.000000)" fill="#4BABE2">
            <path d="M452,228.997902 C452,226.237637 454.237434,224 456.998538,224 L478.112573,224 C480.873189,224 483.111111,226.229444 483.111111,228.997902 L483.111111,250.002098 C483.111111,252.762363 480.873677,255 478.112573,255 L456.998538,255 C454.237922,255 452,252.770556 452,250.002098 L452,228.997902 Z M477.000966,238.46243 L477.000966,236.308286 L474.890821,236.308286 L474.890821,238.46243 L472.780676,238.46243 L472.780676,240.616573 L474.890821,240.616573 L474.890821,242.770716 L477.000966,242.770716 L477.000966,240.616573 L479.111111,240.616573 L479.111111,238.46243 L477.000966,238.46243 Z M470.268599,238.46243 L463.335266,238.46243 L463.335266,241.026886 L467.555556,241.026886 C467.555556,241.232042 467.455072,241.539777 467.354589,241.744934 C467.254106,242.052668 467.05314,242.257825 466.852174,242.56556 C466.651208,242.873294 466.349758,243.181029 466.048309,243.386186 C465.74686,243.591342 465.344928,243.796499 464.942995,244.001655 C464.44058,244.206812 463.938164,244.206812 463.435749,244.206812 C462.631884,244.206812 461.828019,244.001655 461.124638,243.591342 C460.421256,243.181029 459.918841,242.56556 459.516908,241.847512 C459.114976,241.129464 458.91401,240.308838 458.91401,239.488212 C458.91401,238.667586 459.114976,237.84696 459.516908,237.128912 C459.918841,236.410865 460.521739,235.795395 461.124638,235.385082 C461.828019,234.974769 462.531401,234.769613 463.335266,234.769613 C464.541063,234.769613 465.545894,235.179926 466.249275,235.897973 L468.258937,233.948987 C466.852174,232.615469 465.244444,232 463.335266,232 C462.330435,232 461.426087,232.205156 460.521739,232.615469 C459.617391,233.025782 458.813527,233.538674 458.210628,234.154143 C457.507246,234.872191 457.004831,235.692817 456.602899,236.616021 C456.200966,237.539225 456,238.46243 456,239.488212 C456,240.513995 456.200966,241.437199 456.602899,242.360403 C457.004831,243.283607 457.507246,244.104233 458.210628,244.719703 C458.813527,245.437751 459.617391,245.950642 460.521739,246.360955 C461.426087,246.771268 462.330435,246.976424 463.335266,246.976424 C464.742029,246.976424 465.947826,246.66869 467.05314,246.05322 C468.158454,245.437751 468.962319,244.514546 469.565217,243.488764 C470.168116,242.360403 470.469565,241.129464 470.469565,239.693369 C470.369082,239.283056 470.369082,238.872743 470.268599,238.46243 Z" id="gmail_icon_rc"></path>
        </g>
    </g>
</svg>