<?xml version="1.0" encoding="UTF-8"?>
<svg width="32px" height="31px" viewBox="0 0 32 31" version="1.1" xmlns="http://www.w3.org/2000/svg" xmlns:xlink="http://www.w3.org/1999/xlink">
    <!-- Generator: Sketch 41.2 (35397) - http://www.bohemiancoding.com/sketch -->
    <title>gmail_sq</title>
    <desc>Created with Sketch.</desc>
    <defs></defs>
    <g id="540x270" stroke="none" stroke-width="1" fill="none" fill-rule="evenodd">
        <g id="Business_card_01-" transform="translate(-93.000000, -225.000000)" fill="#4BABE2">
            <path d="M93,225 L124.111111,225 L124.111111,256 L93,256 L93,225 Z M120.000966,239.46243 L120.000966,237.308286 L117.890821,237.308286 L117.890821,239.46243 L115.780676,239.46243 L115.780676,241.616573 L117.890821,241.616573 L117.890821,243.770716 L120.000966,243.770716 L120.000966,241.616573 L122.111111,241.616573 L122.111111,239.46243 L120.000966,239.46243 Z M113.268599,239.46243 L106.335266,239.46243 L106.335266,242.026886 L110.555556,242.026886 C110.555556,242.232042 110.455072,242.539777 110.354589,242.744934 C110.254106,243.052668 110.05314,243.257825 109.852174,243.56556 C109.651208,243.873294 109.349758,244.181029 109.048309,244.386186 C108.74686,244.591342 108.344928,244.796499 107.942995,245.001655 C107.44058,245.206812 106.938164,245.206812 106.435749,245.206812 C105.631884,245.206812 104.828019,245.001655 104.124638,244.591342 C103.421256,244.181029 102.918841,243.56556 102.516908,242.847512 C102.114976,242.129464 101.91401,241.308838 101.91401,240.488212 C101.91401,239.667586 102.114976,238.84696 102.516908,238.128912 C102.918841,237.410865 103.521739,236.795395 104.124638,236.385082 C104.828019,235.974769 105.531401,235.769613 106.335266,235.769613 C107.541063,235.769613 108.545894,236.179926 109.249275,236.897973 L111.258937,234.948987 C109.852174,233.615469 108.244444,233 106.335266,233 C105.330435,233 104.426087,233.205156 103.521739,233.615469 C102.617391,234.025782 101.813527,234.538674 101.210628,235.154143 C100.507246,235.872191 100.004831,236.692817 99.6028986,237.616021 C99.2009662,238.539225 99,239.46243 99,240.488212 C99,241.513995 99.2009662,242.437199 99.6028986,243.360403 C100.004831,244.283607 100.507246,245.104233 101.210628,245.719703 C101.813527,246.437751 102.617391,246.950642 103.521739,247.360955 C104.426087,247.771268 105.330435,247.976424 106.335266,247.976424 C107.742029,247.976424 108.947826,247.66869 110.05314,247.05322 C111.158454,246.437751 111.962319,245.514546 112.565217,244.488764 C113.168116,243.360403 113.469565,242.129464 113.469565,240.693369 C113.369082,240.283056 113.369082,239.872743 113.268599,239.46243 Z" id="gmail_sq"></path>
        </g>
    </g>
</svg>