<?xml version="1.0" encoding="UTF-8"?>
<svg width="31px" height="31px" viewBox="0 0 31 31" version="1.1" xmlns="http://www.w3.org/2000/svg" xmlns:xlink="http://www.w3.org/1999/xlink">
    <!-- Generator: Sketch 41.2 (35397) - http://www.bohemiancoding.com/sketch -->
    <title>google_circle</title>
    <desc>Created with Sketch.</desc>
    <defs></defs>
    <g id="540x270" stroke="none" stroke-width="1" fill="none" fill-rule="evenodd">
        <g id="Business_card_02-Copy" transform="translate(-458.000000, -109.000000)" fill="#4BABE2">
            <g id="google_circle" transform="translate(457.666667, 109.000000)">
                <path d="M15.5270397,0.375 C7.24172737,0.375 0.526315789,7.06288043 0.526315789,15.3125815 C0.526315789,23.5622826 7.24172737,30.250163 15.5270397,30.250163 C23.8107013,30.250163 30.5261129,23.5622826 30.5261129,15.3125815 C30.5261129,7.06288043 23.8107013,0.375 15.5270397,0.375 Z M24.5092592,14.214816 L24.5092592,12.3730338 L22.7115387,12.3730338 L22.7115387,14.214816 L20.9138182,14.214816 L20.9138182,16.0565983 L22.7115387,16.0565983 L22.7115387,17.8983805 L24.5092592,17.8983805 L24.5092592,16.0565983 L26.3069796,16.0565983 L26.3069796,14.214816 L24.5092592,14.214816 Z M18.7736748,14.214816 L12.866879,14.214816 L12.866879,16.407414 L16.4623199,16.407414 C16.4623199,16.5828218 16.3767142,16.8459335 16.2911084,17.0213414 C16.2055027,17.2844531 16.0342912,17.459861 15.8630797,17.7229727 C15.6918683,17.9860844 15.4350511,18.2491962 15.1782339,18.424604 C14.9214166,18.6000119 14.5789937,18.7754197 14.2365707,18.9508275 C13.8085421,19.1262354 13.3805134,19.1262354 12.9524847,19.1262354 C12.2676388,19.1262354 11.5827929,18.9508275 10.9835528,18.6000119 C10.3843126,18.2491962 9.95628391,17.7229727 9.61386097,17.1090453 C9.27143802,16.4951179 9.10022655,15.7934865 9.10022655,15.0918552 C9.10022655,14.3902239 9.27143802,13.6885925 9.61386097,13.0746651 C9.95628391,12.4607377 10.4699183,11.9345142 10.9835528,11.5836985 C11.5827929,11.2328829 12.1820331,11.057475 12.866879,11.057475 C13.8941478,11.057475 14.7502052,11.4082907 15.3494453,12.0222181 L17.0615601,10.3558437 C15.8630797,9.2156928 14.493388,8.6894693 12.866879,8.6894693 C12.0108216,8.6894693 11.24037,8.86487713 10.4699183,9.2156928 C9.6994667,9.56650846 9.01462081,10.005028 8.50098639,10.5312515 C7.90174623,11.145179 7.47371755,11.8468103 7.1312946,12.6361455 C6.78887166,13.4254808 6.61766018,14.214816 6.61766018,15.0918552 C6.61766018,15.9688944 6.78887166,16.7582296 7.1312946,17.5475649 C7.47371755,18.3369001 7.90174623,19.0385314 8.50098639,19.5647549 C9.01462081,20.1786824 9.6994667,20.6172019 10.4699183,20.9680176 C11.24037,21.3188333 12.0108216,21.4942411 12.866879,21.4942411 C14.0653593,21.4942411 15.0926281,21.2311294 16.0342912,20.7049059 C16.9759543,20.1786824 17.6608002,19.3893471 18.1744346,18.5123079 C18.6880691,17.5475649 18.9448863,16.4951179 18.9448863,15.267263 C18.8592805,14.9164474 18.8592805,14.5656317 18.7736748,14.214816 Z" id="Combined-Shape"></path>
            </g>
        </g>
    </g>
</svg>