<?xml version="1.0" encoding="UTF-8"?>
<svg width="14px" height="18px" viewBox="0 0 14 18" version="1.1" xmlns="http://www.w3.org/2000/svg" xmlns:xlink="http://www.w3.org/1999/xlink">
    <!-- Generator: Sketch 41.2 (35397) - http://www.bohemiancoding.com/sketch -->
    <title>mobile_white_icon</title>
    <desc>Created with Sketch.</desc>
    <defs>
        <polygon id="path-1" points="13.2783158 9 13.2783158 17.9998105 0 17.9998105 0 9 0 0.000189473684 13.2783158 0.000189473684 13.2783158 9"></polygon>
    </defs>
    <g id="540x270" stroke="none" stroke-width="1" fill="none" fill-rule="evenodd">
        <g id="mobile_icon" transform="translate(-199.000000, -159.000000)">
            <g id="mobile_white_icon" transform="translate(199.000000, 159.000000)">
                <mask id="mask-2" fill="white">
                    <use xlink:href="#path-1"></use>
                </mask>
                <g id="Clip-2"></g>
                <path d="M6.08021053,16.0476632 C5.93147368,15.8809263 5.85663158,15.6800842 5.85663158,15.4451368 C5.85663158,15.2092421 5.93147368,15.0084 6.08021053,14.8426105 C6.22894737,14.6768211 6.40989474,14.5934526 6.62115789,14.5934526 C6.82768421,14.5934526 7.00768421,14.6777684 7.16210526,14.8473474 C7.31652632,15.0159789 7.39421053,15.2158737 7.39421053,15.4451368 C7.39421053,15.6744 7.31652632,15.8733474 7.16210526,16.0429263 C7.00768421,16.2125053 6.82768421,16.2968211 6.62115789,16.2968211 C6.40989474,16.2968211 6.22894737,16.2134526 6.08021053,16.0476632 L6.08021053,16.0476632 Z M2.72652632,11.8801895 C2.72652632,12.1871368 2.83547368,12.4486105 3.05147368,12.6646105 C3.26842105,12.8796632 3.52610526,12.9876632 3.82452632,12.9876632 L9.43484211,12.9876632 C9.73326316,12.9876632 9.98810526,12.8796632 10.1993684,12.6646105 C10.4096842,12.4486105 10.5148421,12.1871368 10.5148421,11.8801895 L10.5148421,4.63850526 C10.5148421,4.33724211 10.4096842,4.07766316 10.1993684,3.85882105 C9.98810526,3.63997895 9.73326316,3.53008421 9.43484211,3.53008421 L3.82452632,3.53008421 C3.52610526,3.53008421 3.26842105,3.63997895 3.05147368,3.85882105 C2.83547368,4.07766316 2.72652632,4.33724211 2.72652632,4.63850526 L2.72652632,11.8801895 Z M1.73463158,11.8782947 L1.73463158,4.63092632 C1.73463158,4.05682105 1.93831579,3.56608421 2.34757895,3.15776842 C2.75684211,2.7504 3.24568421,2.54576842 3.816,2.54576842 L9.45284211,2.54576842 C10.0222105,2.54576842 10.5082105,2.7504 10.908,3.15776842 C11.3077895,3.56608421 11.5076842,4.05682105 11.5076842,4.63092632 L11.5076842,11.8782947 C11.5076842,12.4580842 11.3077895,12.9516632 10.908,13.3599789 C10.5082105,13.7682947 10.0222105,13.9719789 9.45284211,13.9719789 L3.816,13.9719789 C3.24568421,13.9719789 2.75684211,13.7682947 2.34757895,13.3599789 C1.93831579,12.9516632 1.73463158,12.4580842 1.73463158,11.8782947 L1.73463158,11.8782947 Z M0.992842105,13.9824 C0.992842105,14.3547158 1.12831579,14.7185053 1.39926316,15.0737684 C1.67021053,15.4280842 2.05578947,15.7530316 2.55694737,16.0486105 C3.68810526,16.6928211 5.04189474,17.0149263 6.62115789,17.0149263 L6.63915789,17.0149263 C8.23547368,17.0149263 9.59873684,16.6928211 10.7298947,16.0486105 C11.7672632,15.4394526 12.2854737,14.7507158 12.2854737,13.9824 L12.2854737,4.01703158 C12.2854737,3.50829474 12.0543158,3.02987368 11.592,2.58082105 C11.1306316,2.13082105 10.4996842,1.76324211 9.69915789,1.47713684 C8.89863158,1.19008421 8.028,1.02524211 7.08631579,0.984505263 L6.62684211,0.984505263 L6.34452632,0.984505263 C5.37726316,1.01387368 4.48294737,1.16924211 3.65968421,1.44966316 C2.83736842,1.73103158 2.18652632,2.09861053 1.70905263,2.55429474 C1.23157895,3.00903158 0.992842105,3.49692632 0.992842105,4.01703158 L0.992842105,13.9824 Z M0,13.9899789 L0,4.01892632 C0,3.30366316 0.271894737,2.64334737 0.814736842,2.03987368 C1.35852632,1.43734737 2.11073684,0.955136842 3.07326316,0.594189474 C4.03578947,0.233242105 5.10821053,0.0352421053 6.28957895,0.000189473684 L6.31515789,0.000189473684 L6.61642105,0.000189473684 L7.13084211,0.000189473684 C8.28189474,0.0532421053 9.32778947,0.261663158 10.2656842,0.625452632 C11.2045263,0.989242105 11.9415789,1.46955789 12.4758947,2.06734737 C13.0111579,2.66418947 13.2783158,3.31503158 13.2783158,4.01892632 L13.2783158,13.9899789 C13.2783158,14.5517684 13.1021053,15.0851368 12.7506316,15.5910316 C12.3991579,16.0969263 11.8932632,16.5393474 11.232,16.9173474 C9.97957895,17.6392421 8.44768421,18.0001895 6.63442105,18.0001895 L6.59936842,18.0001895 C4.83347368,18.0001895 3.31578947,17.6335579 2.04631579,16.8993474 C1.38505263,16.5270316 0.878210526,16.0912421 0.526736842,15.5910316 C0.175263158,15.0917684 0,14.5574526 0,13.9899789 L0,13.9899789 Z" id="Fill-1" fill="#FFFFFF" mask="url(#mask-2)"></path>
            </g>
        </g>
    </g>
</svg>
