<?xml version="1.0" encoding="UTF-8"?>
<svg width="32px" height="31px" viewBox="0 0 32 31" version="1.1" xmlns="http://www.w3.org/2000/svg" xmlns:xlink="http://www.w3.org/1999/xlink">
    <!-- Generator: Sketch 41.2 (35397) - http://www.bohemiancoding.com/sketch -->
    <title>tweeter_icon_rc</title>
    <desc>Created with Sketch.</desc>
    <defs></defs>
    <g id="540x270" stroke="none" stroke-width="1" fill="none" fill-rule="evenodd">
        <g id="Business_card_03" transform="translate(-373.000000, -224.000000)" fill="#4BABE2">
            <path d="M373,228.997902 C373,226.237637 375.237434,224 377.998538,224 L399.112573,224 C401.873189,224 404.111111,226.229444 404.111111,228.997902 L404.111111,250.002098 C404.111111,252.762363 401.873677,255 399.112573,255 L377.998538,255 C375.237922,255 373,252.770556 373,250.002098 L373,228.997902 Z M392.091792,232.000859 C393.504772,231.975794 394.257176,232.502168 394.974034,233.171561 C395.584252,233.117007 396.376647,232.76904 396.843197,232.527233 C396.99427,232.441716 397.145343,232.357673 397.296417,232.27363 C397.029817,233.009373 396.668425,233.585878 396.113009,234.023785 C395.990077,234.121098 395.867144,234.252323 395.713109,234.314249 L395.713109,234.323096 C396.504022,234.314249 397.157192,233.950063 397.777778,233.751015 L397.777778,233.761336 C397.451933,234.290658 397.010562,234.827353 396.54105,235.21218 C396.351468,235.366996 396.160404,235.520338 395.970822,235.675153 C395.98119,236.5318 395.958973,237.348638 395.801975,238.069637 C394.891092,242.25556 392.478362,245.098272 388.657095,246.314682 C387.285586,246.752589 385.068363,246.93247 383.496904,246.532898 C382.717839,246.335324 382.01283,246.11121 381.352255,245.816323 C380.984939,245.65266 380.645764,245.474253 380.31992,245.272256 C380.21328,245.205906 380.10664,245.139557 380,245.073207 C380.353986,245.083528 380.768697,245.18379 381.165635,245.11744 C381.524063,245.058463 381.875087,245.074681 382.206856,244.999485 C383.031835,244.815181 383.764985,244.570424 384.395938,244.192969 C384.701047,244.010139 385.166116,243.794871 385.382358,243.530947 C384.973571,243.538319 384.601813,243.441007 384.298185,243.330424 C383.117739,242.904312 382.430503,242.121387 381.984689,240.944787 C382.341637,240.984597 383.371009,241.080435 383.61243,240.872539 C383.162172,240.847474 382.729688,240.580601 382.420136,240.383027 C381.470743,239.775559 380.697603,238.756724 380.703528,237.189399 C380.827941,237.249851 380.952355,237.310303 381.076768,237.370754 C381.315227,237.473965 381.556648,237.528519 381.842502,237.588971 C381.962472,237.614036 382.202412,237.686284 382.340156,237.634678 L382.322382,237.634678 C382.138725,237.414988 381.83954,237.270493 381.654401,237.036058 C381.045665,236.261979 380.475437,235.070635 380.836828,233.652227 C380.927176,233.292465 381.073806,232.973987 381.227841,232.680574 C381.233766,232.684998 381.23969,232.686472 381.245615,232.690895 C381.316708,232.842762 381.475187,232.953345 381.574421,233.080146 C381.885455,233.473821 382.269062,233.82916 382.660076,234.14174 C383.991595,235.206283 385.191295,235.860932 387.11822,236.346022 C387.606987,236.4684 388.171291,236.562764 388.754848,236.564238 C388.591926,236.0762 388.643765,235.285902 388.772622,234.812608 C389.096985,233.624213 389.801994,232.767566 390.837291,232.309016 C391.084636,232.199908 391.358642,232.120289 391.647459,232.055413 C391.79557,232.03772 391.943681,232.018553 392.091792,232.000859 Z" id="tweeter_icon_rc"></path>
        </g>
    </g>
</svg>